<svg width="12" height="13" viewBox="0 0 12 13" fill="none" xmlns="http://www.w3.org/2000/svg">
  <path d="M5.6875 0.8125C6.22622 0.8125 6.74288 1.02651 7.12381 1.40744C7.50474 1.78837 7.71875 2.30503 7.71875 2.84375V3.25H3.65625V2.84375C3.65625 2.30503 3.87026 1.78837 4.25119 1.40744C4.63212 1.02651 5.14878 0.8125 5.6875 0.8125ZM8.53125 3.25V2.84375C8.53125 2.08954 8.23164 1.36622 7.69833 0.832915C7.16503 0.299608 6.44171 0 5.6875 0C4.93329 0 4.20997 0.299608 3.67667 0.832915C3.14336 1.36622 2.84375 2.08954 2.84375 2.84375V3.25H0V11.375C0 11.806 0.171205 12.2193 0.475951 12.524C0.780698 12.8288 1.19402 13 1.625 13H9.75C10.181 13 10.5943 12.8288 10.899 12.524C11.2038 12.2193 11.375 11.806 11.375 11.375V3.25H8.53125ZM0.8125 4.0625H10.5625V11.375C10.5625 11.5905 10.4769 11.7972 10.3245 11.9495C10.1722 12.1019 9.96549 12.1875 9.75 12.1875H1.625C1.40951 12.1875 1.20285 12.1019 1.05048 11.9495C0.898102 11.7972 0.8125 11.5905 0.8125 11.375V4.0625Z" fill="#F8F8F8"/>
</svg>
