<svg width="9" height="9" viewBox="0 0 9 9" fill="none" xmlns="http://www.w3.org/2000/svg">
  <path d="M5.08741 4.50001L8.12491 1.46251C8.19317 1.3828 8.22884 1.28027 8.22479 1.1754C8.22074 1.07054 8.17727 0.971061 8.10306 0.896855C8.02885 0.822649 7.92938 0.779177 7.82451 0.775126C7.71965 0.771076 7.61712 0.806745 7.53741 0.875006L4.49991 3.91251L1.46241 0.870839C1.3827 0.802578 1.28017 0.766909 1.1753 0.77096C1.07044 0.77501 0.970962 0.818482 0.896756 0.892688C0.82255 0.966894 0.779078 1.06637 0.775028 1.17123C0.770977 1.2761 0.806647 1.37863 0.874908 1.45834L3.91241 4.50001L0.870741 7.53751C0.827124 7.57486 0.791698 7.62082 0.766689 7.67252C0.741679 7.72421 0.727625 7.78052 0.725408 7.8379C0.723192 7.89528 0.732861 7.95251 0.753809 8.00597C0.774756 8.05944 0.806531 8.108 0.847137 8.14861C0.887743 8.18922 0.936304 8.22099 0.989773 8.24194C1.04324 8.26289 1.10046 8.27255 1.15785 8.27034C1.21523 8.26812 1.27153 8.25407 1.32323 8.22906C1.37492 8.20405 1.42089 8.16862 1.45824 8.12501L4.49991 5.08751L7.53741 8.12501C7.61712 8.19327 7.71965 8.22894 7.82451 8.22488C7.92938 8.22083 8.02885 8.17736 8.10306 8.10316C8.17727 8.02895 8.22074 7.92948 8.22479 7.82461C8.22884 7.71975 8.19317 7.61722 8.12491 7.53751L5.08741 4.50001Z" fill="#F8F8F8"/>
</svg>