<svg width="24" height="24" viewBox="0 0 24 24" fill="none" xmlns="http://www.w3.org/2000/svg">
    <path d="M16 6C16 6.53043 15.7893 7.03914 15.4142 7.41421C15.0391 7.78929 14.5304 8 14 8C13.4696 8 12.9609 7.78929 12.5858 7.41421C12.2107 7.03914 12 6.53043 12 6C12 5.46957 12.2107 4.96086 12.5858 4.58579C12.9609 4.21071 13.4696 4 14 4C14.5304 4 15.0391 4.21071 15.4142 4.58579C15.7893 4.96086 16 5.46957 16 6ZM5 0C3.67392 0 2.40215 0.526784 1.46447 1.46447C0.526784 2.40215 0 3.67392 0 5V15C0 15.6566 0.129329 16.3068 0.380602 16.9134C0.631876 17.52 1.00017 18.0712 1.46447 18.5355C2.40215 19.4732 3.67392 20 5 20H15C15.6566 20 16.3068 19.8707 16.9134 19.6194C17.52 19.3681 18.0712 18.9998 18.5355 18.5355C18.9998 18.0712 19.3681 17.52 19.6194 16.9134C19.8707 16.3068 20 15.6566 20 15V5C20 4.34339 19.8707 3.69321 19.6194 3.08658C19.3681 2.47995 18.9998 1.92876 18.5355 1.46447C18.0712 1.00017 17.52 0.631876 16.9134 0.380602C16.3068 0.129329 15.6566 0 15 0H5ZM2 5C2 4.20435 2.31607 3.44129 2.87868 2.87868C3.44129 2.31607 4.20435 2 5 2H15C15.7956 2 16.5587 2.31607 17.1213 2.87868C17.6839 3.44129 18 4.20435 18 5V15C18 15.464 17.894 15.9 17.708 16.294L12.418 11.004C11.7766 10.3628 10.9069 10.0026 10 10.0026C9.09311 10.0026 8.22335 10.3628 7.582 11.004L2.292 16.294C2.09894 15.89 1.99915 15.4478 2 15V5ZM3.706 17.708L8.996 12.418C9.26229 12.1518 9.62344 12.0022 10 12.0022C10.3766 12.0022 10.7377 12.1518 11.004 12.418L16.294 17.708C15.89 17.9011 15.4478 18.0009 15 18H5C4.536 18 4.1 17.894 3.706 17.708ZM10 24C9.22367 24.0006 8.45788 23.8202 7.76351 23.473C7.06913 23.1258 6.4653 22.6214 6 22H15C16.8565 22 18.637 21.2625 19.9497 19.9497C21.2625 18.637 22 16.8565 22 15V4C23.214 4.912 24 6.364 24 8V15C24 17.3869 23.0518 19.6761 21.364 21.364C19.6761 23.0518 17.3869 24 15 24H10Z" fill="#353535"/>
</svg>
