<svg width="18" height="18" viewBox="0 0 18 18" fill="none" xmlns="http://www.w3.org/2000/svg">
    <path d="M12 4.5C12 4.89782 11.842 5.27936 11.5607 5.56066C11.2794 5.84196 10.8978 6 10.5 6C10.1022 6 9.72064 5.84196 9.43934 5.56066C9.15804 5.27936 9 4.89782 9 4.5C9 4.10218 9.15804 3.72064 9.43934 3.43934C9.72064 3.15804 10.1022 3 10.5 3C10.8978 3 11.2794 3.15804 11.5607 3.43934C11.842 3.72064 12 4.10218 12 4.5ZM3.75 0C2.75544 0 1.80161 0.395088 1.09835 1.09835C0.395088 1.80161 0 2.75544 0 3.75V11.25C0 11.7425 0.0969966 12.2301 0.285452 12.6851C0.473907 13.14 0.75013 13.5534 1.09835 13.9017C1.80161 14.6049 2.75544 15 3.75 15H11.25C11.7425 15 12.2301 14.903 12.6851 14.7145C13.14 14.5261 13.5534 14.2499 13.9017 13.9017C14.2499 13.5534 14.5261 13.14 14.7145 12.6851C14.903 12.2301 15 11.7425 15 11.25V3.75C15 3.25754 14.903 2.76991 14.7145 2.31494C14.5261 1.85997 14.2499 1.44657 13.9017 1.09835C13.5534 0.75013 13.14 0.473907 12.6851 0.285452C12.2301 0.0969966 11.7425 0 11.25 0H3.75ZM1.5 3.75C1.5 3.15326 1.73705 2.58097 2.15901 2.15901C2.58097 1.73705 3.15326 1.5 3.75 1.5H11.25C11.8467 1.5 12.419 1.73705 12.841 2.15901C13.2629 2.58097 13.5 3.15326 13.5 3.75V11.25C13.5 11.598 13.4205 11.925 13.281 12.2205L9.3135 8.253C8.83249 7.77211 8.18017 7.50196 7.5 7.50196C6.81983 7.50196 6.16751 7.77211 5.6865 8.253L1.719 12.2205C1.57421 11.9175 1.49936 11.5858 1.5 11.25V3.75ZM2.7795 13.281L6.747 9.3135C6.94672 9.11382 7.21758 9.00164 7.5 9.00164C7.78242 9.00164 8.05328 9.11382 8.253 9.3135L12.2205 13.281C11.9175 13.4258 11.5858 13.5006 11.25 13.5H3.75C3.402 13.5 3.075 13.4205 2.7795 13.281ZM7.5 18C6.91775 18.0005 6.34341 17.8651 5.82263 17.6047C5.30185 17.3443 4.84898 16.9661 4.5 16.5H11.25C12.6424 16.5 13.9777 15.9469 14.9623 14.9623C15.9469 13.9777 16.5 12.6424 16.5 11.25V3C17.4105 3.684 18 4.773 18 6V11.25C18 13.0402 17.2888 14.7571 16.023 16.023C14.7571 17.2888 13.0402 18 11.25 18H7.5Z" fill="#353535"/>
</svg>
